<?xml version="1.0" encoding="utf-8"?>
<!-- Generator: Adobe Illustrator 22.0.1, SVG Export Plug-In . SVG Version: 6.00 Build 0)  -->
<svg version="1.1" id="Layer_1" xmlns="http://www.w3.org/2000/svg" xmlns:xlink="http://www.w3.org/1999/xlink" x="0px" y="0px"
	 viewBox="0 0 317.5 363.9" style="enable-background:new 0 0 317.5 363.9;" xml:space="preserve">
<style type="text/css">
	.st0{fill:#17161A;}
	.st1{clip-path:url(#SVGID_2_);fill:#17161A;}
	.st2{clip-path:url(#SVGID_2_);fill:#F6E31C;}
	.st3{clip-path:url(#SVGID_2_);fill-rule:evenodd;clip-rule:evenodd;fill:#17161A;}
</style>
<polygon class="st0" points="92.2,227.1 88.9,210 96.3,210.7 94.4,200.9 86.8,201.1 79.3,176 150.6,179.8 154.7,200.1 118.4,200.6 
	120.9,213 133.1,214.1 135.4,229.7 124.3,229.5 132.1,268 106.8,264 99.9,228.9 92.5,228.8 "/>
<g>
	<defs>
		<rect id="SVGID_1_" width="317.5" height="363.9"/>
	</defs>
	<clipPath id="SVGID_2_">
		<use xlink:href="#SVGID_1_"  style="overflow:visible;"/>
	</clipPath>
	<path class="st1" d="M180.1,90.8c2.7-0.4,5.5-0.5,8.3-0.5c13.6,0,24.1,4.1,31.5,11.1c7.8,7.5,12,18.2,12.1,30.5
		c0.1,12.1-3.7,22.7-10.8,30.5c-6.9,7.7-16.7,12.5-28.7,13.4c-12,0.8-22.7-1-31-6.9c-8.4-5.9-14.2-15.8-16.2-31
		c-0.3-2.7-0.5-5.4-0.5-7.9c0-11.4,3.6-20.4,9.8-27C160.8,96.2,169.6,92.1,180.1,90.8 M188.4,112.8c-1.5,0-3,0.1-4.5,0.3
		c-5.1,0.7-9.4,2.6-12.4,5.5c-3,3-4.7,7.1-4.7,12.4c0,1.1,0.1,2.3,0.2,3.6c0.2,1.3,0.4,2.6,0.8,3.8c1.5,5.5,4.7,9.6,8.6,12.2
		c3.8,2.6,8.5,3.6,13.1,3c0.9-0.1,1.8-0.3,2.7-0.5c5.6-1.6,9.4-3.8,11.8-6.9c2.4-3.1,3.4-7.4,3.3-13.2c-0.1-6.1-1.7-11.5-5.1-15.2
		C199.2,114.7,194.7,112.8,188.4,112.8"/>
	<path class="st2" d="M278.1,190.3c2.3,0.3,4.5,1.1,6.5,2.3l0.5-4.4l0.2-4.4c-2.5,1-5.3,1.4-8.2,1.1c-2.4-0.2-4.6-0.9-6.6-1.8
		l-0.2,3.9l-0.4,3.9C272.4,190.2,275.2,189.9,278.1,190.3 M158.5,199.2l-4.4-19.9c14.8-0.3,29.9-0.8,44.8-0.8
		c9.9,0.2,20.5,1.8,28.1,6.3c8,4.7,12.9,12.5,10.9,25.2c-2.2,13.8-15.3,17.5-27,17.9l29.7,9.2l12.1,4.1c4,1.3,4.4,1.4,5.5,2.4
		c4.2,2.7,5.3,8.7,1.9,13c-3.8,4.2-8,3.9-10.1,3.5c-1.4-0.4-12.7-4.3-14.4-4.8l-44.6-16.6l5,28.7l-25.7,3.6l-4.2-70.3l-7.3,0.2
		L158.5,199.2z M187.5,199.8l0.7,11.8c6.8,0.5,31.3,2,31.8-4.7c0.2-3.8-4.5-5.8-11-6.8C202.4,199.1,194.2,199.3,187.5,199.8
		 M291.7,208.3c-0.4-2.5-1.2-4.9-2.5-6.9c-2.6-4.1-6.7-6.9-11.5-7.7c-5.2-0.9-10.3,0.4-14.3,2.7c-4,2.3-6.9,5.6-8.1,9.8
		c-1.4,4.5-0.3,9.4,2.2,13.8c1,1.8,1.2,4,0.3,5.7c-0.7,1.5-1.4,3-2.3,4.5c-1,1.7-2.7,2.9-4.8,3.1c-2.6,0.2-4.9,0.9-7.1,1.9
		c-0.4,0.2-0.8,0.4-1.2,0.7c3.6,1.2,7.2,2.3,10.8,3.6l0.2,0c4,1.3,4.5,1.5,5.9,2.6c0.2,0.2,0.5,0.4,0.7,0.5c2.2,1.7,3.5,4.1,3.9,6.7
		c0.4,2.6-0.1,5.4-1.7,7.8c-0.2,0.3-0.4,0.6-0.7,0.9l-0.1,0.1c-2.3,2.5-4.6,3.6-6.8,4.1c-2.2,0.5-4,0.3-5.3,0l-0.1,0
		c-0.8-0.2-4.5-1.4-7.9-2.6c-2.1-0.7-4.2-1.4-5.4-1.9c0.7,2.7,2.2,4.5,4.9,7.3c3.4,3.4,8,5.1,12.9,4.9c2.4-0.2,4.8-0.9,7.2-2
		c2.2-1.2,4.4-2.9,6.1-5c1-1.3,1.9-2.7,2.6-4.1c0.7-1.4,1.2-2.9,1.4-4.4c0.7-2.9,0.5-6-0.3-8.6c-0.6-2.2-0.4-4.6,0.7-6.7
		c1-1.7,1.8-3.5,2.7-5.2c1.1-2.1,2.8-3.7,5-4.4c5.4-1.8,10-6.6,11.8-13C291.9,213.5,292.1,210.8,291.7,208.3 M282.1,214L282.1,214
		c-0.8,2.6-2.5,4.6-4.7,5.7c-2.2,1-4.7,1.2-7.1,0.3c-2.4-0.9-4.2-2.7-5.2-4.7c-1-2-1.4-4.3-0.7-6.5c0.6-2.2,2.1-4,4.1-5.1
		c1.9-1.1,4.4-1.6,6.9-1.1c2.5,0.5,4.5,2,5.8,4.1C282.5,208.8,282.8,211.4,282.1,214 M29.7,154.1c2.6,4.1,6.7,6.9,11.5,7.7
		c5.3,0.9,10.3-0.4,14.3-2.7c4-2.3,6.9-5.6,8.1-9.8c1.4-4.5,0.3-9.4-2.2-13.8c-1-1.8-1.2-4-0.3-5.7c0.7-1.5,1.4-3,2.3-4.5
		c1-1.7,2.7-2.9,4.8-3.1c2.6-0.2,4.9-0.9,7-1.9c1.1-0.5,2.1-1.1,3-1.9c0.9-0.7,1.7-1.4,2.4-2.4H68.5h0c-1.5,0-2.9-0.2-4.1-0.6
		c-3.4-0.9-5.8-2.8-7.4-5c-1.7-2.2-2.4-4.8-2.4-7.2c0-0.8,0.1-1.5,0.3-2.2c0.7-2.7,2.2-5,4.3-6.7c2-1.7,4.6-2.7,7.4-2.9h0.1
		c3.5,0,7,0.1,10.5,0.1h2c-0.3-0.3-0.7-0.6-1.3-1.2c-3.4-3.4-8-5.2-12.9-4.9c-2.4,0.2-4.8,0.8-7.2,2c-2.2,1.2-4.4,2.9-6.1,5
		c-1,1.3-1.9,2.7-2.6,4.1c-0.7,1.4-1.1,2.9-1.4,4.4c-0.7,2.9-0.5,6,0.3,8.6c0.6,2.2,0.4,4.6-0.7,6.7c-1,1.7-1.8,3.5-2.7,5.2
		c-1.1,2.1-2.8,3.7-5,4.5c-5.4,1.7-10,6.5-11.8,13c-0.7,2.6-0.9,5.3-0.5,7.9C27.6,149.6,28.4,152,29.7,154.1 M36.8,141.4L36.8,141.4
		c0.8-2.6,2.5-4.6,4.7-5.6c2.2-1.1,4.7-1.2,7.1-0.3c2.4,0.9,4.2,2.6,5.2,4.6c1,2,1.4,4.3,0.7,6.5c-0.6,2.2-2.1,3.9-4.2,5
		c-1.9,1.2-4.4,1.6-6.9,1.1c-2.5-0.5-4.5-2-5.8-4.1C36.5,146.7,36.1,144,36.8,141.4 M246.2,117.3c-0.6,2.2-0.9,4.5-0.7,6.6
		c0.1,2.2,0.8,4.2,1.8,6.1c0.6,1.1,1.2,2,2.1,2.9c0.7,0.9,1.6,1.7,2.6,2.3c2,1.4,4.2,2.4,6.7,3c2.1,0.5,3.6,2,4.3,3.8
		c0.6,1.6,1,3.2,1.5,4.8c0.6,1.9,0.1,4-1.2,5.6c-3.2,3.9-5,8.5-4.4,13.2c0.5,4.3,2.9,8,6.4,11c3.5,2.9,8.3,5,13.6,5
		c4.9,0,9.3-2.1,12.6-5.7c1.6-1.8,2.8-4,3.6-6.5c0.8-2.4,1-5.1,0.9-7.9c-0.7-6.7-4.5-12.2-9.5-14.8c-2-1.1-3.5-3-4.2-5.2
		c-0.6-1.9-1.1-3.8-1.8-5.6c-0.8-2.2-0.6-4.6,0.4-6.7c1.2-2.5,1.9-5.5,1.8-8.4c-0.1-1.5-0.3-3.1-0.7-4.6c-0.5-1.5-1.1-3-1.9-4.5
		c-1.4-2.4-3.2-4.4-5.2-5.9c-2.1-1.5-4.4-2.6-6.7-3.2c-4.8-1.1-9.6-0.1-13.5,2.7C250,108.4,247.3,112.9,246.2,117.3 M275.8,154.4
		L275.8,154.4c2.5-0.5,5,0.1,6.9,1.5c2,1.4,3.3,3.7,3.7,6.3c0.2,2.7-0.5,5.2-2.1,7.1c-1.6,1.8-3.8,2.9-6.4,3.1
		c-2.6,0.1-4.9-0.8-6.7-2.2c-1.8-1.4-3-3.4-3.2-5.7c-0.3-2.3,0.4-4.5,1.8-6.3C271.2,156.4,273.3,154.9,275.8,154.4 M259,113.3
		L259,113.3c4.3-2.9,10.1-1.4,12.7,3.4c2.6,4.8,0.6,10.5-4.1,12.5c-4.7,2.1-9.9,0.3-12.1-3.7C253.4,121.5,254.8,116.1,259,113.3
		 M241.8,102.9l2.6,2.9l2.4,3c1.4-2.3,3.1-4.5,5.5-6.2c1.9-1.4,4-2.4,6.2-2.9l-2.8-3.5l-2.9-3.3c-1.1,2.5-2.8,4.8-5,6.6
		C245.9,101.1,243.9,102.2,241.8,102.9 M187.9,81.8c4.5,1.4,9.3,0.4,13.7-2.1c1.8-1.1,4-1.2,5.7-0.3c1.5,0.8,3,1.4,4.4,2.3
		c1.7,1,2.9,2.7,3.1,4.8c0.2,2.6,0.9,4.9,1.9,7.1c0.5,1.1,1.1,2,1.9,2.9c0.7,0.9,1.5,1.8,2.5,2.5c1.7,1.3,3.6,2.3,5.7,2.8
		c2.1,0.5,4.3,0.7,6.6,0.5c4.5-0.4,9.4-2.4,13.2-6.1c3.4-3.5,5.1-8.1,4.9-12.9c-0.2-2.4-0.9-4.8-2-7.1c-1.2-2.2-2.9-4.4-5-6.2
		c-1.3-1-2.7-1.9-4.1-2.6c-1.4-0.7-2.9-1.2-4.4-1.5c-2.9-0.7-6-0.5-8.6,0.3c-2.2,0.6-4.6,0.4-6.7-0.7c-1.7-1-3.4-1.8-5.2-2.7
		c-2.1-1.1-3.7-2.8-4.4-5c-1.8-5.4-6.6-10-13-11.8c-2.7-0.6-5.4-0.9-7.9-0.5c-2.6,0.4-4.9,1.2-7,2.5c-4.1,2.6-6.9,6.7-7.7,11.5
		c-0.9,5.3,0.4,10.4,2.6,14.3C180.4,77.7,183.7,80.6,187.9,81.8 M225.3,79L225.3,79c2.8-4.3,8.8-5.3,13-2c4.3,3.4,4.7,9.4,1.2,13.2
		c-3.5,3.7-9.1,4.2-12.6,1.4C223.3,88.8,222.4,83.3,225.3,79 M184.4,61.7L184.4,61.7c0.5-2.5,2-4.6,4.1-5.8c2.1-1.2,4.7-1.6,7.3-0.9
		c2.6,0.8,4.6,2.5,5.7,4.7c1.1,2.2,1.2,4.7,0.3,7.1c-0.9,2.4-2.6,4.2-4.7,5.3c-2,1-4.3,1.4-6.5,0.7c-2.2-0.6-4-2.2-5.1-4.1
		C184.3,66.7,183.8,64.2,184.4,61.7 M165.5,51.8c1,2.6,1.4,5.3,1.1,8.2c-0.2,2.4-0.9,4.6-1.8,6.6l3.9,0.2l3.9,0.4
		c-0.7-2.6-1-5.4-0.6-8.2c0.3-2.4,1.2-4.6,2.3-6.5l-4.4-0.5L165.5,51.8z M157.7,45.8c-1.8-1.6-4-2.8-6.5-3.6c-2.4-0.8-5.1-1-7.9-0.8
		c-6.7,0.7-12.2,4.5-14.8,9.5c-1.1,2-3,3.5-5.2,4.2c-1.9,0.5-3.8,1.1-5.6,1.8c-2.2,0.8-4.6,0.6-6.7-0.4c-2.5-1.2-5.5-1.9-8.4-1.7
		c-1.5,0.1-3.1,0.3-4.6,0.7c-1.5,0.5-3,1.1-4.5,1.9c-2.4,1.3-4.3,3.2-5.9,5.2c-1.5,2.1-2.6,4.4-3.1,6.7c-1.1,4.8-0.2,9.6,2.6,13.6
		c3.1,4.3,7.6,7,12,8.2c2.2,0.6,4.5,0.8,6.6,0.6c2.1-0.1,4.2-0.7,6.1-1.8c1.1-0.5,2-1.2,2.9-2c0.9-0.8,1.7-1.6,2.3-2.6
		c1.4-2,2.4-4.1,3-6.7c0.5-2.1,2-3.6,3.8-4.3c1.6-0.6,3.2-1,4.8-1.5c1.9-0.6,4-0.1,5.6,1.2c3.9,3.2,8.5,5.1,13.2,4.4
		c4.3-0.5,8.1-2.9,11-6.4c2.9-3.5,5-8.4,5-13.6C163.3,53.5,161.3,49.1,157.7,45.8 M107.3,81.6L107.3,81.6c-4,2.2-9.4,0.7-12.2-3.5
		c-2.9-4.3-1.4-10.1,3.3-12.7c4.8-2.6,10.5-0.5,12.5,4.1C113,74.2,111.2,79.4,107.3,81.6 M151.9,65.8L151.9,65.8
		c-1.4,1.8-3.4,3-5.7,3.3c-2.3,0.3-4.5-0.5-6.3-1.8c-1.8-1.3-3.2-3.4-3.8-5.9c-0.5-2.5,0.1-5,1.5-6.9c1.4-1.9,3.7-3.3,6.3-3.7
		c2.7-0.3,5.3,0.5,7.1,2.1c1.8,1.6,3,3.8,3.1,6.4C154.2,61.7,153.3,64.1,151.9,65.8 M88.7,91.9l1.9-1.6c-2.3-1.3-4.5-3.1-6.2-5.5
		c-1.4-1.9-2.4-4-2.9-6.2l-3.4,2.8l-3.3,2.9c2.5,1.1,4.7,2.8,6.6,5c0.7,0.9,1.2,1.6,1.7,2.4L88.7,91.9z M40.8,165.1
		c-2.4-0.3-4.5-1.1-6.5-2.3l-0.5,4.4l-0.2,4.4c2.5-1,5.3-1.4,8.2-1.1c2.4,0.2,4.6,0.9,6.6,1.9l0.2-3.9l0.4-3.9
		C46.5,165.3,43.6,165.5,40.8,165.1 M72.7,238.1c0.6-2.2,0.9-4.5,0.6-6.6c-0.1-2.2-0.7-4.2-1.7-6.1c-0.6-1-1.3-2-2.1-2.9
		c-0.7-0.9-1.6-1.6-2.6-2.3c-2-1.3-4.1-2.4-6.7-3c-2.1-0.5-3.6-1.9-4.3-3.8c-0.6-1.5-1-3.1-1.5-4.8c-0.6-1.9-0.1-4,1.2-5.6
		c3.2-3.9,5-8.5,4.4-13.2c-0.5-4.3-2.9-8-6.4-11c-3.5-2.9-8.4-5-13.7-5c-4.8,0-9.3,2-12.6,5.7c-1.6,1.8-2.8,4-3.6,6.5
		c-0.8,2.4-1,5.1-0.8,7.9c0.7,6.7,4.5,12.2,9.5,14.8c2.1,1.1,3.5,3,4.2,5.2c0.6,1.9,1.1,3.8,1.8,5.6c0.8,2.2,0.6,4.7-0.4,6.7
		c-1.2,2.5-1.9,5.5-1.8,8.5c0.1,1.5,0.3,3.1,0.7,4.6c0.5,1.5,1.1,3,1.9,4.5c1.3,2.4,3.2,4.4,5.2,6c2.1,1.5,4.4,2.6,6.7,3.1
		c4.8,1.1,9.6,0.1,13.6-2.7C68.8,247,71.6,242.5,72.7,238.1 M43.1,201L43.1,201c-2.5,0.5-5,0-6.9-1.4c-1.9-1.4-3.3-3.7-3.7-6.4
		c-0.2-2.7,0.5-5.2,2.1-7c1.6-1.9,3.8-3,6.4-3.1c2.5-0.1,4.9,0.8,6.6,2.2c1.8,1.4,3,3.4,3.3,5.7c0.3,2.2-0.5,4.5-1.8,6.3
		C47.7,199,45.6,200.5,43.1,201 M59.8,242.1L59.8,242.1c-4.3,2.8-10.1,1.4-12.7-3.3c-2.6-4.8-0.5-10.5,4.1-12.5
		c4.7-2,10-0.3,12.2,3.7C65.5,233.9,64.1,239.3,59.8,242.1 M77.1,252.5l-2.6-2.9l-2.4-3.1c-1.3,2.3-3.1,4.5-5.4,6.2
		c-1.9,1.4-4,2.4-6.2,2.9l2.8,3.5l2.9,3.3c1.1-2.5,2.8-4.8,5-6.6C73,254.3,75,253.2,77.1,252.5 M131,273.6
		c-4.5-1.4-9.3-0.3-13.8,2.2c-1.8,1-3.9,1.2-5.7,0.3c-1.5-0.7-3-1.4-4.5-2.3c-1.7-1-2.9-2.7-3.1-4.8c-0.2-2.6-0.9-4.9-1.9-7
		c-0.5-1.1-1.2-2.1-1.9-3c-0.7-0.9-1.5-1.7-2.5-2.5c-1.7-1.3-3.6-2.3-5.7-2.7c-2-0.6-4.3-0.7-6.6-0.5c-4.5,0.4-9.4,2.4-13.2,6.1
		c-3.4,3.4-5.2,8-4.9,12.9c0.2,2.4,0.8,4.8,2,7.2c1.2,2.2,2.9,4.4,5,6.1c1.3,1,2.7,1.9,4.1,2.6c1.4,0.7,2.9,1.1,4.4,1.4
		c2.9,0.7,6,0.5,8.6-0.3c2.2-0.6,4.6-0.4,6.7,0.7c1.7,1,3.5,1.8,5.2,2.7c2.1,1.1,3.7,2.8,4.5,5c1.7,5.4,6.5,10,13,11.8
		c2.7,0.7,5.3,0.9,7.9,0.5c2.6-0.5,4.9-1.2,6.9-2.5c4.1-2.6,6.9-6.7,7.7-11.5c0.9-5.2-0.4-10.3-2.7-14.3
		C138.5,277.8,135.2,274.8,131,273.6 M93.6,276.4L93.6,276.4c-2.8,4.3-8.8,5.4-13,2c-4.3-3.4-4.7-9.4-1.2-13.1
		c3.5-3.7,9-4.3,12.6-1.4C95.6,266.7,96.4,272.1,93.6,276.4 M134.6,293.7L134.6,293.7c-0.5,2.5-2,4.5-4.1,5.8
		c-2.1,1.2-4.7,1.6-7.3,0.9c-2.6-0.8-4.6-2.5-5.6-4.7c-1.1-2.2-1.2-4.7-0.3-7.1c0.9-2.4,2.6-4.2,4.7-5.2c2-1,4.3-1.4,6.5-0.7
		c2.2,0.6,3.9,2.2,5.1,4.2C134.6,288.7,135.1,291.2,134.6,293.7 M154.1,288.8l-3.9-0.2l-3.9-0.5c0.7,2.6,1,5.4,0.5,8.3
		c-0.3,2.3-1.1,4.5-2.3,6.5l4.4,0.5l4.4,0.2c-1-2.6-1.4-5.3-1.1-8.2C152.5,293,153.2,290.8,154.1,288.8 M219.8,264.4
		c-2.2-0.6-4.5-0.9-6.6-0.7c-2.2,0.1-4.2,0.8-6.1,1.8c-1,0.5-2,1.2-2.8,2c-0.9,0.8-1.7,1.7-2.4,2.6c-1.3,2-2.4,4.2-3,6.7
		c-0.5,2.1-1.9,3.6-3.8,4.3c-1.6,0.6-3.2,1-4.8,1.5c-1.9,0.6-4,0.1-5.6-1.2c-3.9-3.2-8.5-5.1-13.2-4.4c-4.3,0.5-8,2.9-11,6.4
		c-2.9,3.5-5,8.3-5,13.6c0,4.9,2,9.3,5.7,12.6c1.8,1.6,4,2.8,6.5,3.6c2.4,0.8,5.1,1,7.9,0.8c6.7-0.7,12.2-4.4,14.8-9.5
		c1.1-2,3-3.5,5.3-4.2c1.9-0.6,3.7-1.1,5.6-1.8c2.2-0.8,4.6-0.5,6.7,0.4c2.5,1.2,5.5,1.9,8.5,1.7c1.5,0,3.1-0.2,4.6-0.7
		c1.5-0.5,3-1.1,4.5-1.9c2.4-1.4,4.4-3.2,6-5.3c1.5-2.1,2.6-4.4,3.1-6.7c1.1-4.8,0.1-9.6-2.6-13.5
		C228.7,268.3,224.2,265.6,219.8,264.4 M181.2,301L181.2,301c-1.4,2-3.7,3.3-6.4,3.7c-2.7,0.3-5.2-0.5-7-2c-1.9-1.6-3-3.9-3.1-6.4
		c-0.1-2.6,0.8-4.9,2.2-6.7c1.4-1.8,3.4-3,5.7-3.2c2.3-0.4,4.5,0.4,6.3,1.8c1.8,1.4,3.2,3.4,3.7,5.9
		C183.2,296.5,182.7,299,181.2,301 M220.5,290L220.5,290c-4.8,2.6-10.5,0.6-12.5-4.1c-2-4.7-0.3-9.9,3.7-12.1
		c4-2.2,9.4-0.7,12.2,3.5C226.7,281.6,225.3,287.4,220.5,290 M234.2,260l-2.9,2.6l-3.1,2.4c2.3,1.3,4.5,3.1,6.2,5.5
		c1.4,1.9,2.4,4,2.9,6.2l3.5-2.8l3.3-2.9c-2.5-1.1-4.8-2.8-6.6-5C236.1,264.2,235,262.1,234.2,260"/>
	<path class="st1" d="M103.5,49.8l-2.1-2.2l-6.7,3.1l0.3,3L89.8,56l-2.5-24.8l4.7-2.1l16.7,18.2L103.5,49.8z M94.1,44.9l3.5-1.6
		l-4-4.4L94.1,44.9z M119.9,43.8c-1.4,0.4-2.9,0.6-4.5,0.4c-1.6-0.2-3.1-0.6-4.5-1.4c-1.4-0.8-2.6-1.8-3.5-3c-1-1.2-1.6-2.6-2.1-4.1
		c-0.4-1.6-0.5-3.1-0.4-4.6c0.2-1.5,0.6-3,1.4-4.3c0.8-1.4,1.8-2.6,3-3.6c1.2-0.9,2.6-1.6,4-2c1.4-0.4,2.9-0.6,4.5-0.4
		c1.6,0.2,3,0.6,4.5,1.4l-2.6,4.7c-0.8-0.4-1.6-0.7-2.4-0.7c-0.8-0.1-1.7,0-2.4,0.2c-0.8,0.2-1.5,0.6-2.2,1.1
		c-0.7,0.5-1.2,1.1-1.6,1.9c-0.4,0.8-0.7,1.6-0.8,2.4c-0.1,0.8,0,1.6,0.2,2.5c0.2,0.8,0.6,1.6,1.1,2.2c0.5,0.7,1.1,1.2,1.9,1.6
		c0.8,0.4,1.6,0.7,2.4,0.8c0.8,0.1,1.6,0,2.4-0.2c0.8-0.2,1.5-0.6,2.2-1.1c0.7-0.5,1.2-1.2,1.6-1.9l4.8,2.7c-0.8,1.4-1.8,2.6-3,3.5
		C122.7,42.7,121.4,43.4,119.9,43.8 M142.8,39.2l-1.3-2.7l-7.4,0.9l-0.6,3l-5.7,0.8l5-24.4l5.1-0.6l10.6,22.4L142.8,39.2z
		 M135.4,31.9l3.8-0.5l-2.6-5.4L135.4,31.9z M154.1,14.7c1.5,0,3,0.4,4.4,1c1.4,0.6,2.7,1.5,3.7,2.5c1.1,1,1.9,2.3,2.5,3.6
		c0.6,1.4,1,2.9,1.1,4.5c0,1.6-0.2,3.1-0.8,4.5c-0.5,1.4-1.3,2.7-2.3,3.7c-1,1.1-2.1,1.9-3.5,2.6c-1.3,0.7-2.8,1-4.4,1.2l-5.4,0.2
		l-0.7-23.7L154.1,14.7L154.1,14.7z M154.7,32.9c0.8-0.1,1.6-0.4,2.3-0.7c0.7-0.4,1.3-0.8,1.8-1.4c0.5-0.6,0.9-1.2,1.2-2
		c0.3-0.7,0.4-1.5,0.4-2.3c0-0.8-0.2-1.6-0.5-2.4c-0.3-0.8-0.7-1.4-1.3-2c-0.6-0.6-1.2-1-1.9-1.4c-0.7-0.3-1.5-0.6-2.3-0.6
		L154.7,32.9z M184.1,22l-9.6-1.1l-0.4,3.5l7.8,0.9l-0.6,5.4l-7.8-0.9l-0.5,3.7l9.7,1.1L182,40l-15-1.7l2.7-23.4l15,1.7L184.1,22z
		 M206.1,21.5l5.4,1.4l-4.7,23.2l-5.2-1.4l1.9-9.5l-5.6,8.5l-5.3-1.3l-0.8-10.6l-3.2,9.5l-5.3-1.4l7.5-22.4l5.4,1.4l1.2,15.6
		L206.1,21.5z M211.6,48.5l5.1-5.1L216,24.5l5.5,2.4l0.5,11.3l7.8-7.8l5.4,2.3L217,50.8L211.6,48.5z"/>
	<path class="st1" d="M100.8,326.1c-0.5-0.2-1.1-0.5-1.5-0.9c-0.5-0.3-0.9-0.8-1.2-1.3c-0.6-0.9-1-1.8-1.1-2.9c-0.1-1,0-2.1,0.5-3.1
		l3.9,1.6c-0.2,0.5-0.2,0.8-0.2,1.2c0.1,0.4,0.2,0.6,0.3,0.7c0.2,0.3,0.5,0.5,0.8,0.7c0.3,0.2,0.7,0.2,1,0.2c0.2,0,0.5,0,0.7-0.1
		c0.2-0.1,0.3-0.2,0.5-0.3c0.1-0.1,0.2-0.2,0.3-0.3c0.1-0.1,0.1-0.2,0.2-0.3c0-0.1,0-0.2,0.1-0.3c0-0.2,0-0.3,0-0.5
		c0-0.2-0.1-0.3-0.1-0.5c-0.1-0.2-0.2-0.4-0.4-0.6c-0.2-0.1-0.3-0.2-0.5-0.4c-0.2-0.1-0.3-0.3-0.5-0.5c-0.3-0.3-0.7-0.6-1-0.9
		c-0.4-0.3-0.7-0.7-1-1.2c-0.4-0.5-0.7-1.2-0.8-1.8c-0.2-0.6-0.2-1.3-0.2-1.9c0.1-0.6,0.3-1.2,0.6-1.9c0.3-0.6,0.7-1.1,1.2-1.6
		c0.5-0.4,1-0.7,1.6-1c0.6-0.2,1.2-0.3,1.8-0.3c0.6,0,1.2,0.1,1.8,0.2c0.6,0.2,1.2,0.5,1.7,0.9c0.5,0.4,1,0.8,1.3,1.3
		c0.4,0.5,0.6,1,0.8,1.6c0.2,0.5,0.2,1.1,0.2,1.7c0,0.6-0.1,1.2-0.4,1.7l-3.9-1.6c0.2-0.3,0.2-0.6,0-0.9c-0.2-0.2-0.3-0.4-0.5-0.5
		c0,0-0.1-0.1-0.2-0.1c-0.1-0.1-0.2-0.1-0.4-0.2c-0.2,0-0.3,0-0.5,0c-0.2,0-0.3,0.1-0.5,0.2c-0.2,0.2-0.4,0.5-0.4,0.7
		c0,0.3,0,0.6,0.2,0.8c0.2,0.2,0.4,0.4,0.6,0.6c0.2,0.2,0.5,0.4,0.7,0.6c0.2,0.2,0.5,0.4,0.7,0.6c0.2,0.2,0.5,0.4,0.7,0.7
		c0.8,0.9,1.3,1.9,1.5,3c0.2,1.1,0.1,2.2-0.3,3.3c-0.5,1.1-1.1,1.9-2.1,2.6c-0.9,0.7-2,1-3.2,1.1c-0.5,0-0.9,0-1.4-0.1
		C101.6,326.4,101.2,326.2,100.8,326.1 M112.3,329.8l-4-1.3l5.8-17.3l4,1.3L112.3,329.8z M129.1,315.4l4.1,1l-4.3,17.7l-4.4-1.1
		l-3.3-11.7l-2.4,10.3l-4.1-1l4.2-17.7l4.5,1.1l3.3,11.7L129.1,315.4z M139,335.6c-1.2-0.1-2.3-0.5-3.3-1.1c-1-0.6-1.9-1.4-2.7-2.4
		c-0.7-0.9-1.2-2-1.6-3.2c-0.3-1.2-0.4-2.3-0.2-3.6c0.2-1.2,0.5-2.4,1.1-3.4c0.6-1,1.4-1.9,2.4-2.6c1-0.7,2.1-1.3,3.3-1.6
		c1.2-0.3,2.3-0.4,3.5-0.2c1.2,0.2,2.3,0.5,3.3,1.1c1,0.6,1.9,1.4,2.7,2.4l-3.3,2.5c-0.4-0.5-0.9-1-1.5-1.3
		c-0.6-0.3-1.2-0.5-1.8-0.6c-0.7-0.1-1.3,0-1.9,0.1c-0.6,0.1-1.2,0.4-1.7,0.8c-0.5,0.4-0.9,0.9-1.3,1.5c-0.3,0.5-0.5,1.2-0.6,1.8
		c-0.1,0.6,0,1.3,0.1,1.9c0.2,0.6,0.5,1.2,0.9,1.7c0.4,0.5,0.9,1,1.4,1.3c0.6,0.3,1.2,0.5,1.8,0.6c0.6,0.1,1.2,0,1.9-0.1
		c0.7-0.2,1.2-0.5,1.8-0.9l2.5,3.3c-1,0.8-2.1,1.3-3.2,1.6C141.3,335.7,140.2,335.8,139,335.6 M159.7,323l-7.5-0.2l-0.1,2.8l6.1,0.2
		l-0.1,4.2l-6.1-0.2l-0.1,2.9l7.5,0.2l-0.1,4.2l-11.7-0.4l0.6-18.2l11.7,0.4L159.7,323z M181.5,331.2l0.5,4.2l-12.1,1.4l-0.5-4.5
		c1.1-0.9,2.1-1.7,3-2.6c0.9-0.9,1.6-1.7,2.2-2.4c0.6-0.8,1.1-1.4,1.4-2.1c0.3-0.6,0.5-1.1,0.4-1.4c0-0.5-0.3-1-0.7-1.3
		c-0.4-0.3-0.9-0.5-1.4-0.4c-0.5,0-0.9,0.3-1.2,0.7c-0.3,0.4-0.5,0.9-0.4,1.4l-4.2,0.5c-0.1-0.8,0-1.7,0.2-2.4
		c0.2-0.8,0.6-1.4,1.1-2.1c0.5-0.6,1.1-1.2,1.8-1.5c0.7-0.4,1.4-0.7,2.3-0.8c0.9-0.1,1.7,0,2.4,0.2c0.7,0.2,1.4,0.6,2.1,1.1
		c0.6,0.5,1.1,1.1,1.5,1.8c0.4,0.7,0.7,1.4,0.8,2.3c0.3,2.4-1.2,5.2-4.4,8.5L181.5,331.2z M187.9,315.9c1.2-0.3,2.4-0.3,3.6-0.1
		c1.2,0.2,2.3,0.6,3.3,1.2c1,0.6,1.8,1.4,2.6,2.3c0.7,1,1.2,2.1,1.5,3.3c0.3,1.2,0.3,2.4,0.1,3.6c-0.2,1.2-0.6,2.3-1.2,3.3
		c-0.6,1-1.4,1.9-2.4,2.6c-1,0.7-2.1,1.2-3.3,1.5c-1.2,0.3-2.4,0.3-3.6,0.1c-1.2-0.2-2.3-0.6-3.3-1.2c-1-0.6-1.9-1.4-2.6-2.4
		c-0.7-0.9-1.2-2.1-1.5-3.3c-0.3-1.2-0.3-2.4-0.1-3.6c0.2-1.2,0.6-2.3,1.2-3.3c0.6-1,1.4-1.8,2.4-2.6
		C185.6,316.7,186.7,316.2,187.9,315.9 M191.2,329.5c0.6-0.2,1.2-0.5,1.7-0.8c0.5-0.4,1-0.9,1.3-1.4c0.3-0.5,0.5-1.1,0.7-1.7
		c0.1-0.7,0.1-1.3-0.1-2c-0.2-0.6-0.4-1.2-0.8-1.7c-0.4-0.5-0.8-1-1.4-1.3c-0.5-0.3-1.1-0.5-1.8-0.7c-0.6-0.1-1.3-0.1-1.9,0.1
		c-0.7,0.2-1.2,0.4-1.8,0.8c-0.5,0.4-0.9,0.8-1.2,1.4c-0.3,0.5-0.6,1.1-0.7,1.8c-0.1,0.6-0.1,1.3,0,1.9c0.2,0.7,0.5,1.2,0.8,1.8
		c0.4,0.5,0.9,0.9,1.4,1.2c0.5,0.3,1.1,0.6,1.7,0.7C189.9,329.7,190.6,329.7,191.2,329.5 M201.7,312.3l4.1-1.1l4.8,17.6l-4.1,1.1
		l-3.1-11.2l-0.8,1.8l-3.8-1.7L201.7,312.3z M217.9,314.5c0.7,0.3,1.4,0.7,1.9,1.3c0.6,0.6,1,1.3,1.3,2.1c0.3,0.8,0.5,1.6,0.4,2.4
		c0,0.8-0.2,1.6-0.5,2.3c-0.3,0.7-0.8,1.4-1.4,1.9c-0.6,0.5-1.2,1-2,1.3c-0.8,0.3-1.6,0.5-2.4,0.4c-0.8,0-1.6-0.2-2.3-0.5
		c-0.7-0.3-1.3-0.8-1.9-1.4c-0.6-0.6-1-1.2-1.3-2c-0.3-0.8-0.5-1.6-0.4-2.4c0-0.8,0.2-1.6,0.5-2.3c-0.4-0.3-0.7-0.6-1-1
		c-0.3-0.4-0.5-0.8-0.7-1.2c-0.2-0.7-0.4-1.3-0.3-2c0-0.7,0.1-1.3,0.4-1.9c0.2-0.6,0.6-1.2,1.1-1.6c0.5-0.5,1-0.8,1.7-1.1
		c0.6-0.2,1.3-0.4,1.9-0.4c0.7,0,1.3,0.2,1.9,0.5c0.6,0.2,1.1,0.6,1.6,1.1c0.5,0.5,0.8,1,1.1,1.7c0.2,0.5,0.2,0.9,0.3,1.4
		C218,313.6,218,314.1,217.9,314.5 M212.6,312.8c-0.2,0.1-0.4,0.2-0.5,0.5c-0.1,0.2-0.1,0.5,0,0.7c0.1,0.2,0.2,0.4,0.5,0.5
		c0.2,0.1,0.5,0.1,0.7,0c0.2-0.1,0.4-0.2,0.5-0.5c0.1-0.2,0.1-0.5,0-0.7c-0.1-0.2-0.2-0.4-0.5-0.5
		C213.1,312.7,212.8,312.7,212.6,312.8 M216.2,321.9c0.5-0.2,0.9-0.5,1.1-1c0.2-0.5,0.2-1,0-1.5c-0.2-0.5-0.5-0.8-1-1
		c-0.5-0.2-1-0.2-1.5,0c-0.5,0.2-0.8,0.5-1.1,1c-0.2,0.5-0.2,1,0,1.5c0.2,0.5,0.5,0.9,1,1.1C215.2,322.1,215.7,322.1,216.2,321.9"/>
	<path class="st1" d="M28.9,112.2l-1.3-18.8l20.9,0.2h0l0,0.1l-0.1,0.2h0c-0.2,0.3-0.3,0.5-0.5,0.8c0,0-0.1,0.1-0.1,0.2
		c0,0-0.1,0.1-0.1,0.1c-0.1,0.1-0.2,0.2-0.2,0.3v0c0,0.1-0.2,0.3-0.2,0.4v0c0,0-0.1,0.1-0.1,0.2c-0.4,0.8-0.7,1.6-1,2.4
		c-0.3,0.8-0.5,1.7-0.7,2.4c-0.4,1.6-0.5,3.2-0.4,4.8c0,1.7,0.3,3.3,0.8,4.8v0.1v0c0,0,0,0.1,0,0.1l0,0.1v0.1l0,0.1
		c0,0.1,0,0.2,0,0.3l0,0.2c0,0.2,0,0.5,0,0.7v0.1v0.1c0,0.2,0,0.4,0,0.6l-0.1,0.7c0,0.1-0.1,0.3-0.1,0.4H29L28.9,112.2z M66.7,93.8
		h1.5l12.4,0.2l0,0l57.9,0.6l4.7,43.8c0,0.3,0.1,0.5,0.1,0.8c0.3,4.5-0.4,12.6-3.8,19.9c-3.6,7.5-9.9,14.1-21,15.3
		c-0.4,0-0.7,0.1-1.1,0.1c-10.2,0.7-18.9-4-25.5-11c-8.4-8.8-13.6-21.2-14.7-30.7l-0.3-2.3l24-0.3c0.1,0.5,0.2,1.4,0.2,1.9
		c0,0.3,0.1,1,0.2,2v0c0.8,5.3,3.7,18.9,13.2,17.5c0.4-0.1,0.7-0.2,1-0.3c2.2-0.8,3.4-3.5,3.8-6.9c0.6-4,0.2-8.9-0.5-13.7
		c-1-7-2.8-13.7-3.8-16.6H69.5h-1c-9.3-0.2-12.9-7.7-11.6-12.4C58,97.3,61.9,94,66.7,93.8"/>
	<path class="st3" d="M273.5,247.3l18.9,5.8l-7.2,20.6l-18.9-7.1c0.9-0.8,1.8-1.7,2.6-2.6c0.6-0.7,1.1-1.4,1.6-2.2
		c0.5-0.7,0.9-1.5,1.3-2.3l0,0c0.4-0.8,0.7-1.6,1-2.4c0.3-0.8,0.5-1.6,0.7-2.4v0c0.4-1.6,0.5-3.2,0.4-4.8
		C273.8,249,273.7,248.1,273.5,247.3 M158.5,199.2l-4.4-19.9c14.8-0.3,29.9-0.8,44.8-0.8c9.9,0.2,20.5,1.8,28.1,6.3
		c8,4.7,12.9,12.5,10.9,25.2c-2.2,13.8-15.3,17.5-27,17.9l29.7,9.2l12.1,4.1c4,1.3,4.4,1.4,5.5,2.4c4.2,2.7,5.3,8.7,1.9,13
		c-3.8,4.2-8,3.9-10.1,3.5c-1.4-0.4-12.7-4.3-14.4-4.8l-44.6-16.6l5,28.7l-25.7,3.6l-4.2-70.3l-7.3,0.2L158.5,199.2z M187.5,199.8
		l0.7,11.8c6.8,0.5,31.3,2,31.8-4.7c0.2-3.8-4.5-5.8-11-6.8C202.4,199.1,194.2,199.3,187.5,199.8"/>
</g>
</svg>
